Coordinates
version=1
nRows=18
nColumns=38
inDegrees=no

Units are S.I. units (second, meters, Newtons, ...)
If the header above contains a line with 'inDegrees', this indicates whether rotational values are in degrees (yes) or radians (no).

endheader
time	pelvis_tilt	pelvis_list	pelvis_rotation	pelvis_tx	pelvis_ty	pelvis_tz	hip_flexion_r	hip_adduction_r	hip_rotation_r	knee_angle_r	ankle_angle_r	subtalar_angle_r	mtp_angle_r	hip_flexion_l	hip_adduction_l	hip_rotation_l	knee_angle_l	ankle_angle_l	subtalar_angle_l	mtp_angle_l	lumbar_extension	lumbar_bending	lumbar_rotation	arm_flex_r	arm_add_r	arm_rot_r	elbow_flex_r	pro_sup_r	wrist_flex_r	wrist_dev_r	arm_flex_l	arm_add_l	arm_rot_l	elbow_flex_l	pro_sup_l	wrist_flex_l	wrist_dev_l
2.44	-0.117176	-0.0120876	0.151087	0.758931	0.991094	-0.521181	0.511853	-0.0776891	-0.066985	0.087407	-0.0981163	0.00079196	-0.0117021	-0.12678	-0.0225728	0.193244	0.196122	0.186146	0.107962	-0.00922108	-0.110541	0.0554306	-0.292248	-0.270856	-0.0919522	-0.183239	0.506718	1.14862	-0.00328011	0.000992806	0.15012	-0.257837	-0.0198015	0.859002	1.16463	-2.7407e-05	0.000466441
2.445	-0.118574	-0.0147394	0.154468	0.765684	0.990153	-0.52085	0.512384	-0.0761093	-0.0694533	0.0943539	-0.102956	-0.000928836	-0.0117021	-0.128372	-0.0270284	0.191745	0.201521	0.18538	0.111217	-0.00922108	-0.107168	0.058692	-0.29416	-0.272668	-0.0920471	-0.183857	0.505272	1.1495	-0.00328011	0.000992806	0.152387	-0.258389	-0.0187736	0.86427	1.16419	-2.7407e-05	0.000466441
2.45	-0.120043	-0.0174176	0.157583	0.772504	0.989248	-0.520494	0.513037	-0.0743355	-0.0718907	0.10261	-0.106794	-0.00259586	-0.0117021	-0.12986	-0.0315665	0.190007	0.20721	0.183849	0.114605	-0.00922108	-0.103668	0.0620136	-0.295872	-0.274327	-0.0923367	-0.184289	0.503729	1.15038	-0.00328011	0.000992806	0.154122	-0.258786	-0.0180237	0.869249	1.16387	-2.7407e-05	0.000466441
2.455	-0.121597	-0.0201173	0.160434	0.779391	0.988381	-0.520116	0.513809	-0.0723723	-0.074284	0.112126	-0.109636	-0.00421129	-0.0117021	-0.131226	-0.0361807	0.18804	0.213201	0.181551	0.118115	-0.00922108	-0.100039	0.0653919	-0.297386	-0.275827	-0.0928204	-0.184535	0.502094	1.15125	-0.00328011	0.000992806	0.155328	-0.259029	-0.0175491	0.873935	1.16367	-2.7407e-05	0.000466441
2.46	-0.123235	-0.0228339	0.163033	0.786345	0.987553	-0.519715	0.514704	-0.0702256	-0.0765901	0.122781	-0.111505	-0.00577635	-0.0117021	-0.132431	-0.0408538	0.185868	0.219522	0.178475	0.121711	-0.00922108	-0.0962809	0.0688172	-0.298703	-0.277155	-0.0934971	-0.184591	0.50038	1.1521	-0.00328011	0.000992806	0.156014	-0.259115	-0.0173463	0.878317	1.16358	-2.7407e-05	0.000466441
2.465	-0.124956	-0.0255579	0.165372	0.793365	0.986765	-0.51929	0.515731	-0.0678951	-0.0787269	0.134385	-0.112442	-0.00728662	-0.0117021	-0.133413	-0.045558	0.183517	0.226223	0.174604	0.12533	-0.00922108	-0.0923921	0.0722733	-0.299807	-0.27829	-0.0943656	-0.184449	0.498602	1.15292	-0.00328011	0.000992806	0.156191	-0.259041	-0.0174145	0.882371	1.16359	-2.7407e-05	0.000466441
2.47	-0.126761	-0.028279	0.167417	0.800447	0.986023	-0.518837	0.516905	-0.0653653	-0.0805716	0.146723	-0.112499	-0.00874125	-0.0117021	-0.1341	-0.0502586	0.181008	0.233378	0.169913	0.128881	-0.00922108	-0.0883849	0.07574	-0.300657	-0.2792	-0.0954236	-0.184101	0.496779	1.15371	-0.00328011	0.000992806	0.155872	-0.258797	-0.0177555	0.886059	1.1637	-2.7407e-05	0.000466441
2.475	-0.128639	-0.0309893	0.169098	0.807586	0.985336	-0.518349	0.518239	-0.0626039	-0.0819745	0.159595	-0.111728	-0.0101475	-0.0117021	-0.134431	-0.0549177	0.178346	0.241088	0.164379	0.132249	-0.00922108	-0.0842936	0.0791944	-0.301187	-0.27985	-0.096667	-0.183542	0.49493	1.15447	-0.00328011	0.000992806	0.155068	-0.25837	-0.0183732	0.889336	1.1639	-2.7407e-05	0.000466441
2.48	-0.130554	-0.0336795	0.170325	0.814775	0.984725	-0.517815	0.519732	-0.0595681	-0.0827826	0.172844	-0.110164	-0.0115205	-0.0117021	-0.134362	-0.0594946	0.175521	0.249483	0.157981	0.135307	-0.00922108	-0.0801804	0.0826079	-0.30131	-0.280202	-0.0980885	-0.182772	0.493076	1.15522	-0.00328011	0.000992806	0.153786	-0.257744	-0.0192731	0.892149	1.16419	-2.7407e-05	0.000466441
2.485	-0.132442	-0.0363313	0.170994	0.822009	0.984212	-0.517224	0.521356	-0.0562157	-0.0828615	0.186362	-0.107808	-0.0128756	-0.0117021	-0.133871	-0.0639418	0.172499	0.258726	0.150718	0.137925	-0.00922108	-0.0761346	0.0859397	-0.300927	-0.280224	-0.0996764	-0.181791	0.491236	1.15597	-0.00328011	0.000992806	0.15203	-0.256905	-0.0204621	0.894451	1.16458	-2.7407e-05	0.000466441
2.49	-0.134227	-0.0389083	0.171002	0.829286	0.983814	-0.516562	0.52306	-0.0525171	-0.0821063	0.20009	-0.104634	-0.0142278	-0.0117021	-0.132949	-0.0682001	0.169227	0.269013	0.142605	0.139979	-0.00922108	-0.0722657	0.0891294	-0.299933	-0.279891	-0.101414	-0.180603	0.489427	1.15675	-0.00328011	0.000992806	0.149798	-0.255843	-0.021947	0.896198	1.16509	-2.7407e-05	0.000466441
2.495	-0.13583	-0.041351	0.170238	0.836602	0.983545	-0.515815	0.524759	-0.048464	-0.0804459	0.213995	-0.100593	-0.015584	-0.0117021	-0.131597	-0.0721949	0.165629	0.280574	0.133682	0.141359	-0.00922108	-0.0686932	0.0920926	-0.298223	-0.279193	-0.103278	-0.179216	0.487666	1.15758	-0.00328011	0.000992806	0.147086	-0.254556	-0.0237335	0.897363	1.16571	-2.7407e-05	0.000466441
2.5	-0.137173	-0.0435809	0.168595	0.843955	0.98341	-0.51497	0.526349	-0.0440743	-0.0778467	0.228049	-0.0956332	-0.0169286	-0.0117021	-0.129812	-0.0758388	0.161613	0.293664	0.124007	0.141977	-0.00922108	-0.0655372	0.0947235	-0.295701	-0.278131	-0.105243	-0.177637	0.485972	1.15849	-0.00328011	0.000992806	0.143895	-0.253049	-0.0258261	0.897932	1.16647	-2.7407e-05	0.000466441
2.505	-0.13818	-0.0455091	0.165979	0.851342	0.983412	-0.514015	0.527704	-0.0393917	-0.0743093	0.242218	-0.0897167	-0.0182227	-0.0117021	-0.127579	-0.0790401	0.157084	0.308544	0.113645	0.141767	-0.00922108	-0.0629073	0.0969045	-0.292287	-0.276718	-0.107281	-0.175882	0.484362	1.15949	-0.00328011	0.000992806	0.140231	-0.251337	-0.0282246	0.89791	1.16737	-2.7407e-05	0.000466441
2.51	-0.138786	-0.0470463	0.162347	0.85876	0.983548	-0.512945	0.528693	-0.0344819	-0.0698712	0.256444	-0.0828377	-0.0194034	-0.0117021	-0.124867	-0.0817167	0.151961	0.325463	0.102653	0.14069	-0.00922108	-0.0608923	0.0985222	-0.287936	-0.274979	-0.109363	-0.17397	0.482863	1.16062	-0.00328011	0.000992806	0.136113	-0.249441	-0.0309214	0.897316	1.16841	-2.7407e-05	0.000466441
2.515	-0.138941	-0.0481217	0.157708	0.866201	0.98381	-0.511758	0.529185	-0.0294255	-0.0646131	0.270639	-0.0750309	-0.0203888	-0.0117021	-0.121623	-0.0838145	0.146198	0.344627	0.0910577	0.138738	-0.00922108	-0.0595489	0.0994865	-0.282653	-0.272949	-0.111466	-0.171929	0.481504	1.16189	-0.00328011	0.000992806	0.131576	-0.247389	-0.0339	0.896183	1.1696	-2.7407e-05	0.000466441
2.52	-0.13862	-0.0486995	0.152142	0.873656	0.984182	-0.510461	0.529067	-0.0243095	-0.05866	0.284687	-0.0663767	-0.0210958	-0.0117021	-0.11778	-0.0853218	0.139807	0.366164	0.0788375	0.135931	-0.00922108	-0.0588912	0.0997497	-0.276504	-0.270673	-0.113571	-0.169796	0.480326	1.16334	-0.00328011	0.000992806	0.126667	-0.245212	-0.0371313	0.894552	1.17091	-2.7407e-05	0.000466441
2.525	-0.137817	-0.0487872	0.145799	0.881117	0.984644	-0.50907	0.528249	-0.0192177	-0.0521809	0.298447	-0.0569964	-0.0214551	-0.0117021	-0.113253	-0.0862802	0.132867	0.390102	0.0659099	0.132318	-0.00922108	-0.058882	0.0993192	-0.269624	-0.268202	-0.11567	-0.167615	0.47938	1.16497	-0.00328011	0.000992806	0.121442	-0.24294	-0.0405724	0.892467	1.17233	-2.7407e-05	0.000466441
